#N canvas 521 222 900 626 10;
#X obj 108 106 osc~ 440;
#X obj 63 40 s freq;
#X obj 144 39 s onOff;
#X obj 142 16 tgl 15 0 empty empty empty 17 7 0 10 -262144 -1 -1 0
1;
#X floatatom 55 15 5 0 0 0 - - -, f 5;
#X obj 145 223 dac~;
#X obj 147 175 *~;
#X obj 107 80 r freq;
#X obj 199 107 r onOff;
#X obj 192 145 tgl 15 0 empty empty empty 17 7 0 10 -262144 -1 -1 0
1;
#X obj 474 15 r bang;
#X obj 364 85 60 \, 50 100 \, 0 200;
#X obj 367 132 line~;
#X msg 591 135 0.025;
#X obj 361 173 osc~ 440;
#X obj 361 207 *~ 1;
#X obj 354 298 dac~;
#X obj 463 177 r slider1;
#X obj 360 246 *~;
#X obj 448 210 r onOff;
#X obj 422 237 tgl 15 0 empty empty empty 17 7 0 10 -262144 -1 -1 0
1;
#X obj 400 372 line~;
#X obj 394 447 *~ 1;
#X obj 387 538 dac~;
#X obj 496 417 r slider1;
#X obj 393 486 *~;
#X obj 455 477 tgl 15 0 empty empty empty 17 7 0 10 -262144 -1 -1 0
1;
#X obj 394 413 phasor~ 440;
#X obj 507 255 r bang2;
#X obj 397 325 100 \, 50 100 \, 0 200;
#X msg 624 375 0.03;
#X obj 299 24 r slider2;
#X connect 0 0 6 0;
#X connect 3 0 2 0;
#X connect 4 0 1 0;
#X connect 6 0 5 0;
#X connect 6 0 5 1;
#X connect 7 0 0 0;
#X connect 8 0 9 0;
#X connect 9 0 6 1;
#X connect 10 0 11 0;
#X connect 10 0 13 0;
#X connect 11 0 12 0;
#X connect 12 0 14 0;
#X connect 13 0 14 1;
#X connect 14 0 15 0;
#X connect 15 0 18 0;
#X connect 17 0 15 1;
#X connect 18 0 16 0;
#X connect 18 0 16 1;
#X connect 19 0 20 0;
#X connect 20 0 18 1;
#X connect 21 0 27 0;
#X connect 22 0 25 0;
#X connect 24 0 22 1;
#X connect 25 0 23 0;
#X connect 25 0 23 1;
#X connect 26 0 25 1;
#X connect 27 0 22 0;
#X connect 28 0 30 0;
#X connect 28 0 29 0;
#X connect 28 0 26 0;
#X connect 29 0 21 0;
#X connect 30 0 27 1;
#X connect 31 0 11 0;
